<svg xmlns="http://www.w3.org/2000/svg" width="600" height="400" viewBox="0 0 600 400"><rect width="100%" height="100%" fill="#DDDDDD"/><path fill="#999999" d="M171.195 161.18v59.72h-11.94l-24.11-40.81-.25.04v40.77h-11.98v-59.72h11.98l24.12 40.77.24-.04v-40.73zm8.37 37.98v-.86q0-9.93 5.53-16.26 5.54-6.34 15.34-6.34 9.85 0 15.43 6.32 5.57 6.31 5.57 16.28v.86q0 10.01-5.55 16.31-5.56 6.29-15.36 6.29-9.85 0-15.41-6.29-5.55-6.3-5.55-16.31m11.93-.86v.86q0 6.07 2.14 9.74 2.13 3.67 6.89 3.67 4.63 0 6.78-3.69 2.16-3.69 2.16-9.72v-.86q0-5.91-2.18-9.64-2.17-3.73-6.85-3.73-4.63 0-6.78 3.75-2.16 3.76-2.16 9.62m71.94-37.12v59.72h-11.97v-59.72zm10.96 15.34h11.11l.49 5.87q2.14-3.2 5.36-4.95 3.22-1.74 7.44-1.74 4.27 0 7.3 1.89 3.04 1.88 4.59 5.7 2.05-3.57 5.34-5.58 3.28-2.01 7.71-2.01 6.56 0 10.35 4.53 3.8 4.54 3.8 13.8v26.87h-11.98v-26.91q0-5.04-1.64-7.01t-4.88-1.97q-2.54 0-4.41 1.13t-2.97 3.14q0 .78.04 1.33t.04 1.13v29.16h-11.94v-26.91q0-4.92-1.64-6.95t-4.92-2.03q-2.42 0-4.24.92-1.83.93-3.02 2.61v32.36h-11.93zm110.7 44.38h-11.98q-.66-1.52-1.13-3.2t-.67-3.44q-1.85 3.24-4.87 5.37-3.01 2.13-7.19 2.13-6.98 0-10.75-3.59t-3.77-9.78q0-6.52 5.02-10.11 5.03-3.59 14.66-3.59h6.69v-3.53q0-3.2-1.68-4.96t-4.96-1.76q-2.92 0-4.5 1.41-1.57 1.42-1.57 3.92l-11.57-.04-.04-.25q-.29-5.62 4.88-9.7t13.57-4.08q7.96 0 12.92 4.04 4.97 4.04 4.97 11.51v18.33q0 3.12.47 5.86.47 2.75 1.5 5.46m-22.93-8q3.16 0 5.62-1.56t3.32-3.61v-6.27h-6.69q-3.81 0-5.78 1.91-1.97 1.9-1.97 4.61 0 2.21 1.48 3.57 1.48 1.35 4.02 1.35m28.18-12.96v-.86q0-10.5 4.57-16.94t12.82-6.44q3.73 0 6.56 1.68t4.84 4.8l.94-5.66h10.34v44.17q0 8.66-5.68 13.4-5.68 4.73-15.81 4.73-3.37 0-7.14-.92t-6.97-2.52l2.21-8.94q2.75 1.31 5.6 1.99 2.85.67 6.21.67 4.93 0 7.24-2.05 2.32-2.05 2.32-6.4v-4.02q-1.97 2.51-4.63 3.82-2.67 1.31-6.11 1.31-8.17 0-12.74-6.01t-4.57-15.81m11.97-.86v.86q0 5.83 1.97 9.17t6.4 3.34q2.75 0 4.66-1 1.9-1.01 3.05-2.94v-19.27q-1.15-2.01-3.05-3.12-1.91-1.11-4.58-1.11-4.39 0-6.42 3.9-2.03 3.89-2.03 10.17m56.93 22.68q-9.59 0-15.34-6.15-5.74-6.15-5.74-15.63v-1.64q0-9.88 5.44-16.28 5.43-6.4 14.58-6.36 8.98 0 13.94 5.41 4.96 5.42 4.96 14.65v6.52h-26.49l-.08.24q.32 4.39 2.93 7.22 2.6 2.83 7.07 2.83 3.98 0 6.61-.8 2.62-.8 5.74-2.52l3.24 7.38q-2.71 2.22-7.1 3.68-4.38 1.45-9.76 1.45m-1.06-36.83q-3.33 0-5.25 2.54-1.93 2.55-2.38 6.69l.12.2h14.68v-1.06q0-3.82-1.78-6.09-1.78-2.28-5.39-2.28"/></svg>